<svg width="1000" height="390" aria-label="A chart." style="overflow: hidden;" version="1.1" xmlns="http://www.w3.org/2000/svg"><defs id="defs"><clipPath id="_ABSTRACT_RENDERER_ID_0"><rect x="50" y="10" width="850" height="300"></rect></clipPath></defs><rect x="0" y="0" width="1000" height="390" stroke="none" stroke-width="0" fill="#ffffff"></rect><g><rect x="909" y="10" width="82" height="54" stroke="none" stroke-width="0" fill-opacity="0" fill="#ffffff"></rect><g><rect x="909" y="10" width="82" height="9" stroke="none" stroke-width="0" fill-opacity="0" fill="#ffffff"></rect><g><text text-anchor="start" x="930" y="17.65" font-family="Arial" font-size="9" stroke="none" stroke-width="0" fill="#222222">Tweets</text></g><path d="M909,14.5L927,14.5" stroke="#3366cc" stroke-width="1" fill-opacity="1" fill="none"></path></g><g><rect x="909" y="25" width="82" height="9" stroke="none" stroke-width="0" fill-opacity="0" fill="#ffffff"></rect><g><text text-anchor="start" x="930" y="32.65" font-family="Arial" font-size="9" stroke="none" stroke-width="0" fill="#222222">Users</text></g><path d="M909,29.5L927,29.5" stroke="#dc3912" stroke-width="1" fill-opacity="1" fill="none"></path></g><g><rect x="909" y="40" width="82" height="9" stroke="none" stroke-width="0" fill-opacity="0" fill="#ffffff"></rect><g><text text-anchor="start" x="930" y="47.65" font-family="Arial" font-size="9" stroke="none" stroke-width="0" fill="#222222">Locations</text></g><path d="M909,44.5L927,44.5" stroke="#ff9900" stroke-width="1" fill-opacity="1" fill="none"></path></g><g><rect x="909" y="55" width="82" height="9" stroke="none" stroke-width="0" fill-opacity="0" fill="#ffffff"></rect><g><text text-anchor="start" x="930" y="62.65" font-family="Arial" font-size="9" stroke="none" stroke-width="0" fill="#222222">Geo coded</text></g><path d="M909,59.5L927,59.5" stroke="#109618" stroke-width="1" fill-opacity="1" fill="none"></path></g></g><g><rect x="50" y="10" width="850" height="300" stroke="none" stroke-width="0" fill-opacity="0" fill="#ffffff"></rect><g clip-path="url(#_ABSTRACT_RENDERER_ID_0)"><g><rect x="50" y="309" width="850" height="1" stroke="none" stroke-width="0" fill="#cccccc"></rect><rect x="50" y="234" width="850" height="1" stroke="none" stroke-width="0" fill="#cccccc"></rect><rect x="50" y="160" width="850" height="1" stroke="none" stroke-width="0" fill="#cccccc"></rect><rect x="50" y="85" width="850" height="1" stroke="none" stroke-width="0" fill="#cccccc"></rect><rect x="50" y="10" width="850" height="1" stroke="none" stroke-width="0" fill="#cccccc"></rect></g><g><rect x="50" y="309" width="850" height="1" stroke="none" stroke-width="0" fill="#333333"></rect></g><g><path d="M51.54556650246305,273.12166666666667L53.63669950738916,268.537L55.727832512315274,269.23466666666667L57.81896551724138,266.5436666666667L59.91009852216749,264.55033333333336L62.001231527093594,267.73966666666666L64.0923645320197,271.527L66.18349753694582,273.321L68.27463054187191,269.8326666666667L70.36576354679804,274.6166666666667L72.45689655172414,273.22133333333335L74.54802955665025,278.703L76.63916256157636,273.022L78.73029556650246,273.5203333333333L80.82142857142857,268.1383333333333L82.91256157635468,273.919L85.0036945812808,275.81266666666664L87.09482758620689,278.60333333333335L89.18596059113301,274.01866666666666L91.27709359605912,276.61L93.36822660098522,281.2943333333333L95.45935960591133,278.5036666666667L97.55049261083744,277.00866666666667L99.64162561576356,278.80266666666665L101.73275862068965,280.6963333333333L103.82389162561577,276.41066666666666L105.91502463054188,279.50033333333334L108.00615763546799,280.99533333333335L110.09729064039409,280.5966666666667L112.1884236453202,280.796L114.27955665024632,280.29766666666666L116.37068965517241,281.89233333333334L118.46182266009853,277.4073333333333L120.55295566502464,274.218L122.64408866995075,277.90566666666666L124.73522167487685,278.3043333333333L126.82635467980296,281.89233333333334L128.91748768472905,280.29766666666666L131.00862068965517,284.28433333333334L133.0997536945813,273.42066666666665L135.19088669950742,264.949L137.2820197044335,261.1616666666667L139.3731527093596,264.4506666666667L141.46428571428572,273.5203333333333L143.55541871921184,277.20799999999997L145.64655172413794,277.30766666666665L147.73768472906403,278.00533333333334L149.82881773399015,281.4936666666667L151.91995073891627,282.291L154.0110837438424,276.8093333333333L156.10221674876848,276.8093333333333L158.19334975369458,274.91566666666665L160.2844827586207,277.90566666666666L162.37561576354682,278.404L164.4667487684729,271.527L166.557881773399,270.23133333333334L168.64901477832512,271.62666666666667L170.74014778325125,270.82933333333335L172.83128078817737,271.4273333333333L174.92241379310346,271.62666666666667L177.01354679802955,270.032L179.10467980295567,271.3276666666667L181.1958128078818,238.637L183.2869458128079,205.44799999999998L185.378078817734,216.71033333333332L187.4692118226601,228.172L189.56034482758622,246.01233333333334L191.6514778325123,248.20499999999998L193.74261083743843,251.494L195.83374384236456,252.19166666666666L197.92487684729065,256.4773333333333L200.01600985221677,261.2613333333333L202.10714285714286,260.5636666666667L204.19827586206898,261.361L206.28940886699507,268.836L208.3805418719212,266.6433333333333L210.47167487684732,272.8226666666667L212.5628078817734,269.9323333333333L214.65394088669953,270.032L216.74507389162562,266.145L218.83620689655174,252.49066666666667L220.92733990147784,244.21833333333333L223.01847290640396,221.594L225.10960591133005,232.75666666666666L227.20073891625617,245.91266666666667L229.2918719211823,251.29466666666667L231.38300492610838,255.87933333333334L233.4741379310345,260.96233333333333L235.5652709359606,260.464L237.65640394088672,264.949L239.7475369458128,262.35766666666666L241.83866995073893,264.84933333333333L243.92980295566505,265.44733333333335L246.02093596059115,271.72633333333334L248.11206896551727,264.052L250.20320197044336,264.052L252.29433497536948,270.032L254.38546798029557,273.42066666666665L256.4766009852217,273.12166666666667L258.56773399014776,272.62333333333333L260.65886699507394,276.1116666666667L262.75,275.115L264.8411330049261,270.63L266.93226600985224,273.62L269.0233990147783,271.72633333333334L271.1145320197045,272.125L273.20566502463055,271.62666666666667L275.29679802955667,273.321L277.3879310344828,276.012L279.47906403940885,274.11833333333334L281.57019704433503,271.92566666666664L283.6613300492611,271.527L285.7524630541872,271.62666666666667L287.84359605911334,276.21133333333336L289.9347290640394,275.61333333333334L292.0258620689655,272.32433333333336L294.11699507389164,270.63L296.20812807881777,269.23466666666667L298.2992610837439,271.527L300.39039408866995,270.7296666666667L302.48152709359607,267.54033333333336L304.5726600985222,272.8226666666667L306.6637931034483,269.135L308.7549261083744,272.2246666666667L310.8460591133005,271.3276666666667L312.9371921182266,270.23133333333334L315.02832512315274,264.74966666666666L317.11945812807886,261.959L319.2105911330049,261.1616666666667L321.30172413793105,258.7696666666667L323.39285714285717,262.7563333333333L325.4839901477833,262.35766666666666L327.5751231527094,262.856L329.6662561576355,268.73633333333333L331.7573891625616,268.63666666666666L333.8485221674877,271.4273333333333L335.93965517241384,271.72633333333334L338.0307881773399,268.63666666666666L340.121921182266,272.32433333333336L342.21305418719214,272.52366666666666L344.30418719211826,269.33433333333335L346.3953201970444,270.23133333333334L348.48645320197045,273.919L350.57758620689657,274.01866666666666L352.6687192118227,272.52366666666666L354.7598522167488,269.135L356.8509852216749,262.258L358.942118226601,262.1583333333333L361.0332512315271,271.12833333333333L363.12438423645324,266.8426666666667L365.21551724137936,268.03866666666664L367.3066502463054,263.6533333333333L369.39778325123154,269.6333333333333L371.48891625615767,270.13166666666666L373.5800492610838,263.25466666666665L375.67118226600985,266.5436666666667L377.76231527093597,265.248L379.8534482758621,258.47066666666666L381.9445812807882,260.86266666666666L384.03571428571433,258.8693333333333L386.1268472906404,255.68L388.2179802955665,262.258L390.30911330049264,262.856L392.40024630541876,263.155L394.4913793103449,260.165L396.58251231527095,265.9456666666667L398.67364532019707,268.63666666666666L400.7647783251232,261.65999999999997L402.8559113300493,263.5536666666667L404.9470443349754,265.7463333333333L407.0381773399015,265.64666666666665L409.1293103448276,269.8326666666667L411.22044334975374,268.43733333333336L413.31157635467986,266.94233333333335L415.4027093596059,268.63666666666666L417.49384236453204,269.43399999999997L419.58497536945816,265.34766666666667L421.6761083743843,268.73633333333333L423.76724137931035,267.64L425.85837438423647,270.929L427.9495073891626,271.92566666666664L430.0406403940887,264.55033333333336L432.13177339901483,263.753L434.2229064039409,263.95233333333334L436.314039408867,263.5536666666667L438.40517241379314,259.866L440.49630541871926,259.6666666666667L442.5874384236453,261.959L444.67857142857144,262.0586666666667L446.76970443349757,262.9556666666667L448.8608374384237,261.75966666666665L450.9519704433498,259.16833333333335L453.0431034482759,260.3643333333333L455.134236453202,258.1716666666667L457.2253694581281,260.06533333333334L459.31650246305423,262.258L461.40763546798036,265.0486666666667L463.4987684729064,262.35766666666666L465.58990147783254,256.97566666666665L467.68103448275866,250.99566666666666L469.7721674876848,250.69666666666666L471.86330049261085,255.77966666666666L473.95443349753697,251.99233333333333L476.0455665024631,256.4773333333333L478.1366995073892,260.26466666666664L480.22783251231533,256.577L482.3189655172414,258.27133333333336L484.4100985221675,257.2746666666667L486.50123152709364,258.57033333333334L488.59236453201976,265.248L490.6834975369458,265.846L492.77463054187194,263.753L494.86576354679806,260.96233333333333L496.9568965517242,257.9723333333333L499.0480295566503,253.886L501.13916256157637,249.60033333333334L503.2302955665025,261.46066666666667L505.3214285714286,266.04533333333336L507.41256157635473,262.1583333333333L509.5036945812808,262.1583333333333L511.5948275862069,258.8693333333333L513.685960591133,265.248L515.7770935960591,260.26466666666664L517.8682266009853,259.46733333333333L519.9593596059113,259.6666666666667L522.0504926108374,258.47066666666666L524.1416256157636,256.876L526.2327586206898,261.2613333333333L528.3238916256158,256.37766666666664L530.4150246305419,261.8593333333333L532.5061576354681,256.17833333333334L534.5972906403941,253.18833333333333L536.6884236453202,249.00233333333333L538.7795566502464,249.00233333333333L540.8706896551724,251.793L542.9618226600985,245.514L545.0529556650247,249.79966666666667L547.1440886699509,233.65366666666665L549.2352216748768,240.92933333333332L551.326354679803,244.41766666666666L553.4174876847292,223.388L555.5086206896552,211.82666666666665L557.5997536945813,222.49099999999999L559.6908866995075,223.986L561.7820197044335,224.08566666666667L563.8731527093596,227.574L565.9642857142858,229.966L568.0554187192118,226.079L570.146551724138,218.60399999999998L572.2376847290641,221.19533333333334L574.3288177339901,226.87633333333332L576.4199507389163,217.00933333333333L578.5110837438424,215.41466666666668L580.6022167487686,217.30833333333334L582.6933497536946,217.00933333333333L584.7844827586207,219.501L586.8756157635469,222.88966666666667L588.9667487684729,223.986L591.057881773399,227.37466666666666L593.1490147783252,222.29166666666669L595.2401477832512,224.98266666666666L597.3312807881774,225.58066666666667L599.4224137931035,222.98933333333332L601.5135467980296,224.38466666666665L603.6046798029557,229.06900000000002L605.6958128078818,215.81333333333333L607.786945812808,215.11566666666667L609.878078817734,218.40466666666669L611.9692118226601,219.89966666666666L614.0603448275863,218.60399999999998L616.1514778325123,216.90966666666668L618.2426108374385,219.30166666666668L620.3337438423646,216.31166666666667L622.4248768472906,194.78366666666665L624.5160098522168,85.84799999999998L626.6071428571429,36.413333333333355L628.6982758620691,54.05433333333332L630.7894088669951,71.39633333333333L632.8805418719212,83.05733333333333L634.9716748768474,115.24966666666666L637.0628078817734,128.70466666666667L639.1539408866995,122.02699999999999L641.2450738916257,132.29266666666666L643.3362068965517,132.492L645.4273399014779,144.55166666666668L647.518472906404,144.35233333333332L649.60960591133,150.731L651.7007389162562,159.60133333333334L653.7918719211823,173.85366666666667L655.8830049261085,170.36533333333333L657.9741379310345,175.847L660.0652709359606,180.23233333333334L662.1564039408868,179.23566666666667L664.2475369458128,185.51466666666667L666.338669950739,194.086L668.4298029556651,191.79366666666667L670.5209359605911,193.787L672.6120689655173,187.50799999999998L674.7032019704434,199.96633333333335L676.7943349753695,210.03266666666667L678.8854679802956,197.27533333333332L680.9766009852217,204.05266666666665L683.0677339901479,203.15566666666666L685.1588669950739,213.02266666666668L687.25,209.23533333333333L689.3411330049262,217.30833333333334L691.4322660098522,219.40133333333333L693.5233990147784,220.29833333333335L695.6145320197045,219.8L697.7056650246305,228.471L699.7967980295567,228.67033333333333L701.8879310344828,234.451L703.979064039409,233.35466666666667L706.070197044335,234.55066666666667L708.1613300492611,231.85966666666667L710.2524630541873,238.13866666666667L712.3435960591133,237.54066666666665L714.4347290640395,235.946L716.5258620689656,238.43766666666667L718.6169950738916,242.92266666666666L720.7081280788178,248.00566666666666L722.7992610837439,244.81633333333332L724.89039408867,250.19833333333332L726.9815270935961,249.79966666666667L729.0726600985222,243.421L731.1637931034484,246.01233333333334L733.2549261083744,244.916L735.3460591133005,246.21166666666667L737.4371921182267,232.059L739.5283251231527,233.35466666666667L741.6194581280789,229.06900000000002L743.710591133005,226.87633333333332L745.801724137931,237.8396666666667L747.8928571428572,240.92933333333332L749.9839901477833,241.72666666666666L752.0751231527095,243.02233333333334L754.1662561576355,241.627L756.2573891625616,248.10533333333333L758.3485221674878,246.71L760.4396551724138,249.50066666666666L762.53078817734,244.61700000000002L764.6219211822661,247.00900000000001L766.7130541871921,254.58366666666666L768.8041871921183,259.16833333333335L770.8953201970444,261.1616666666667L772.9864532019704,260.5636666666667L775.0775862068966,263.35433333333333L777.1687192118227,265.248L779.2598522167489,272.32433333333336L781.3509852216749,277.4073333333333L783.442118226601,276.8093333333333L785.5332512315272,277.7063333333333L787.6243842364532,273.81933333333336L789.7155172413794,276.51033333333334L791.8066502463055,275.81266666666664L793.8977832512315,274.01866666666666L795.9889162561577,275.9123333333333L798.0800492610838,281.19466666666665L800.17118226601,278.5036666666667L802.262315270936,282.59L804.3534482758621,277.00866666666667L806.4445812807883,278.404L808.5357142857143,279.899L810.6268472906404,287.5733333333333L812.7179802955666,283.98533333333336L814.8091133004926,283.28766666666667L816.9002463054188,284.28433333333334L818.9913793103449,284.5833333333333L821.082512315271,283.58666666666664L823.1736453201971,285.4803333333333L825.2647783251232,285.3806666666667L827.3559113300494,289.168L829.4470443349754,289.766L831.5381773399015,290.56333333333333L833.6293103448277,289.56666666666666L835.7204433497537,286.37733333333335L837.8115763546799,289.168L839.902709359606,290.962L841.993842364532,289.66633333333334L844.0849753694582,293.354L846.1761083743843,293.55333333333334L848.2672413793105,292.756L850.3583743842365,291.16133333333335L852.4495073891626,294.0516666666667L854.5406403940888,292.756L856.6317733990148,289.0683333333333L858.7229064039409,292.5566666666667L860.8140394088671,290.065L862.9051724137931,294.251L864.9963054187193,293.354L867.0874384236454,289.66633333333334L869.1785714285714,292.95533333333333L871.2697044334976,293.8523333333333L873.3608374384237,295.746L875.4519704433499,296.1446666666667L877.5431034482759,295.94533333333334L879.634236453202,294.7493333333333L881.7253694581282,295.94533333333334L883.8165024630542,298.23766666666666L885.9076354679804,296.74266666666665L887.9987684729065,296.942L890.0899014778325,297.241L892.1810344827587,297.9386666666667L894.2721674876848,298.03833333333336L896.363300492611,297.34066666666666L898.454433497537,309.5" stroke="#3366cc" stroke-width="1" fill-opacity="1" fill="none"></path><path d="M51.54556650246305,275.414L53.63669950738916,270.929L55.727832512315274,273.22133333333335L57.81896551724138,270.5303333333333L59.91009852216749,268.537L62.001231527093594,271.02866666666665L64.0923645320197,274.71633333333335L66.18349753694582,276.012L68.27463054187191,274.81600000000003L70.36576354679804,277.00866666666667L72.45689655172414,276.21133333333336L74.54802955665025,281.4936666666667L76.63916256157636,276.1116666666667L78.73029556650246,276.61L80.82142857142857,270.82933333333335L82.91256157635468,276.41066666666666L85.0036945812808,278.703L87.09482758620689,281.59333333333336L89.18596059113301,277.10833333333335L91.27709359605912,279.40066666666667L93.36822660098522,284.085L95.45935960591133,281.693L97.55049261083744,279.2013333333333L99.64162561576356,281.19466666666665L101.73275862068965,282.889L103.82389162561577,278.703L105.91502463054188,281.4936666666667L108.00615763546799,282.68966666666665L110.09729064039409,282.9886666666667L112.1884236453202,282.889L114.27955665024632,281.992L116.37068965517241,283.8856666666667L118.46182266009853,279.9986666666667L120.55295566502464,277.6066666666667L122.64408866995075,280.6963333333333L124.73522167487685,280.39733333333334L126.82635467980296,283.28766666666667L128.91748768472905,281.79266666666666L131.00862068965517,285.879L133.0997536945813,275.81266666666664L135.19088669950742,269.135L137.2820197044335,265.547L139.3731527093596,269.43399999999997L141.46428571428572,277.10833333333335L143.55541871921184,279.7993333333333L145.64655172413794,279.1016666666667L147.73768472906403,279.6L149.82881773399015,282.9886666666667L151.91995073891627,283.786L154.0110837438424,278.90233333333333L156.10221674876848,278.60333333333335L158.19334975369458,278.00533333333334L160.2844827586207,280.09833333333336L162.37561576354682,280.39733333333334L164.4667487684729,273.5203333333333L166.557881773399,273.321L168.64901477832512,274.91566666666665L170.74014778325125,275.414L172.83128078817737,274.6166666666667L174.92241379310346,274.91566666666665L177.01354679802955,274.3176666666667L179.10467980295567,273.919L181.1958128078818,246.31133333333332L183.2869458128079,217.60733333333332L185.378078817734,227.574L187.4692118226601,238.73666666666668L189.56034482758622,252.78966666666668L191.6514778325123,254.58366666666666L193.74261083743843,257.773L195.83374384236456,258.8693333333333L197.92487684729065,260.464L200.01600985221677,265.44733333333335L202.10714285714286,265.44733333333335L204.19827586206898,267.64L206.28940886699507,272.2246666666667L208.3805418719212,269.6333333333333L210.47167487684732,275.2146666666667L212.5628078817734,272.62333333333333L214.65394088669953,272.9223333333333L216.74507389162562,269.6333333333333L218.83620689655174,257.2746666666667L220.92733990147784,250.79633333333334L223.01847290640396,230.96266666666668L225.10960591133005,240.03233333333333L227.20073891625617,251.89266666666666L229.2918719211823,256.77633333333335L231.38300492610838,263.454L233.4741379310345,266.04533333333336L235.5652709359606,265.64666666666665L237.65640394088672,269.6333333333333L239.7475369458128,267.54033333333336L241.83866995073893,268.63666666666666L243.92980295566505,269.135L246.02093596059115,274.4173333333333L248.11206896551727,267.341L250.20320197044336,267.939L252.29433497536948,273.22133333333335L254.38546798029557,275.3143333333333L256.4766009852217,275.414L258.56773399014776,274.91566666666665L260.65886699507394,278.404L262.75,277.6066666666667L264.8411330049261,273.5203333333333L266.93226600985224,276.21133333333336L269.0233990147783,275.01533333333333L271.1145320197045,274.517L273.20566502463055,274.6166666666667L275.29679802955667,276.21133333333336L277.3879310344828,278.3043333333333L279.47906403940885,276.8093333333333L281.57019704433503,274.3176666666667L283.6613300492611,274.01866666666666L285.7524630541872,273.7196666666667L287.84359605911334,277.806L289.9347290640394,277.20799999999997L292.0258620689655,274.81600000000003L294.11699507389164,273.7196666666667L296.20812807881777,272.424L298.2992610837439,275.61333333333334L300.39039408866995,273.42066666666665L302.48152709359607,270.82933333333335L304.5726600985222,276.012L306.6637931034483,273.022L308.7549261083744,275.51366666666667L310.8460591133005,275.01533333333333L312.9371921182266,273.22133333333335L315.02832512315274,267.14166666666665L317.11945812807886,266.34433333333334L319.2105911330049,265.64666666666665L321.30172413793105,262.35766666666666L323.39285714285717,267.54033333333336L325.4839901477833,268.63666666666666L327.5751231527094,268.1383333333333L329.6662561576355,273.22133333333335L331.7573891625616,272.9223333333333L333.8485221674877,274.91566666666665L335.93965517241384,275.81266666666664L338.0307881773399,272.32433333333336L340.121921182266,275.01533333333333L342.21305418719214,274.81600000000003L344.30418719211826,272.8226666666667L346.3953201970444,273.22133333333335L348.48645320197045,277.20799999999997L350.57758620689657,276.61L352.6687192118227,275.2146666666667L354.7598522167488,272.125L356.8509852216749,266.743L358.942118226601,266.8426666666667L361.0332512315271,275.115L363.12438423645324,270.43066666666664L365.21551724137936,271.826L367.3066502463054,269.733L369.39778325123154,273.022L371.48891625615767,273.22133333333335L373.5800492610838,267.14166666666665L375.67118226600985,268.537L377.76231527093597,268.73633333333333L379.8534482758621,264.65L381.9445812807882,265.7463333333333L384.03571428571433,263.5536666666667L386.1268472906404,260.26466666666664L388.2179802955665,265.34766666666667L390.30911330049264,267.939L392.40024630541876,266.444L394.4913793103449,265.547L396.58251231527095,268.9356666666667L398.67364532019707,272.125L400.7647783251232,265.44733333333335L402.8559113300493,266.04533333333336L404.9470443349754,268.63666666666666L407.0381773399015,269.6333333333333L409.1293103448276,271.826L411.22044334975374,270.929L413.31157635467986,269.6333333333333L415.4027093596059,271.527L417.49384236453204,272.424L419.58497536945816,268.537L421.6761083743843,271.62666666666667L423.76724137931035,269.8326666666667L425.85837438423647,273.5203333333333L427.9495073891626,275.115L430.0406403940887,266.743L432.13177339901483,266.743L434.2229064039409,266.743L436.314039408867,265.7463333333333L438.40517241379314,263.85266666666666L440.49630541871926,263.35433333333333L442.5874384236453,265.1483333333333L444.67857142857144,266.444L446.76970443349757,265.9456666666667L448.8608374384237,267.24133333333333L450.9519704433498,263.454L453.0431034482759,265.44733333333335L455.134236453202,261.8593333333333L457.2253694581281,265.1483333333333L459.31650246305423,265.248L461.40763546798036,268.63666666666666L463.4987684729064,265.44733333333335L465.58990147783254,260.3643333333333L467.68103448275866,255.18166666666667L469.7721674876848,254.28466666666668L471.86330049261085,259.46733333333333L473.95443349753697,254.88266666666667L476.0455665024631,259.866L478.1366995073892,264.4506666666667L480.22783251231533,260.96233333333333L482.3189655172414,263.25466666666665L484.4100985221675,263.25466666666665L486.50123152709364,263.5536666666667L488.59236453201976,268.1383333333333L490.6834975369458,268.63666666666666L492.77463054187194,267.04200000000003L494.86576354679806,263.454L496.9568965517242,261.2613333333333L499.0480295566503,258.67L501.13916256157637,253.48733333333334L503.2302955665025,265.1483333333333L505.3214285714286,268.63666666666666L507.41256157635473,264.052L509.5036945812808,265.547L511.5948275862069,262.856L513.685960591133,268.43733333333336L515.7770935960591,263.35433333333333L517.8682266009853,263.5536666666667L519.9593596059113,264.351L522.0504926108374,261.361L524.1416256157636,260.5636666666667L526.2327586206898,265.248L528.3238916256158,259.567L530.4150246305419,265.1483333333333L532.5061576354681,260.06533333333334L534.5972906403941,257.87266666666665L536.6884236453202,252.78966666666668L538.7795566502464,253.886L540.8706896551724,254.78300000000002L542.9618226600985,249.00233333333333L545.0529556650247,253.48733333333334L547.1440886699509,239.03566666666666L549.2352216748768,246.21166666666667L551.326354679803,249.30133333333333L553.4174876847292,228.67033333333333L555.5086206896552,222.39133333333334L557.5997536945813,230.0656666666667L559.6908866995075,231.162L561.7820197044335,232.45766666666668L563.8731527093596,232.65699999999998L565.9642857142858,236.04566666666665L568.0554187192118,231.76L570.146551724138,224.584L572.2376847290641,226.87633333333332L574.3288177339901,232.65699999999998L576.4199507389163,224.88299999999998L578.5110837438424,223.388L580.6022167487686,225.18200000000002L582.6933497536946,223.28833333333333L584.7844827586207,226.87633333333332L586.8756157635469,228.76999999999998L588.9667487684729,229.06900000000002L591.057881773399,232.059L593.1490147783252,226.976L595.2401477832512,229.26833333333332L597.3312807881774,231.6603333333333L599.4224137931035,228.471L601.5135467980296,230.16533333333334L603.6046798029557,235.5473333333333L605.6958128078818,220.398L607.786945812808,221.99266666666665L609.878078817734,223.986L611.9692118226601,224.88299999999998L614.0603448275863,223.58733333333333L616.1514778325123,225.08233333333334L618.2426108374385,225.08233333333334L620.3337438423646,222.88966666666667L622.4248768472906,200.86333333333334L624.5160098522168,105.28299999999999L626.6071428571429,60.53266666666667L628.6982758620691,76.08066666666667L630.7894088669951,92.62533333333334L632.8805418719212,102.19333333333333L634.9716748768474,130.1L637.0628078817734,141.163L639.1539408866995,135.482L641.2450738916257,145.05L643.3362068965517,146.844L645.4273399014779,157.40866666666668L647.518472906404,158.60466666666667L649.60960591133,163.588L651.7007389162562,171.063L653.7918719211823,184.817L655.8830049261085,182.92333333333335L657.9741379310345,186.21233333333333L660.0652709359606,190.498L662.1564039408868,190.3983333333333L664.2475369458128,198.47133333333335L666.338669950739,204.65066666666667L668.4298029556651,200.46466666666666L670.5209359605911,202.757L672.6120689655173,197.87333333333333L674.7032019704434,208.139L676.7943349753695,216.511L678.8854679802956,204.252L680.9766009852217,210.13233333333335L683.0677339901479,210.82999999999998L685.1588669950739,219.00266666666667L687.25,216.31166666666667L689.3411330049262,223.28833333333333L691.4322660098522,225.18200000000002L693.5233990147784,226.47766666666666L695.6145320197045,225.28166666666667L697.7056650246305,234.451L699.7967980295567,233.554L701.8879310344828,240.73000000000002L703.979064039409,237.24166666666667L706.070197044335,239.4343333333333L708.1613300492611,239.13533333333334L710.2524630541873,243.3213333333333L712.3435960591133,242.524L714.4347290640395,242.82299999999998L716.5258620689656,243.122L718.6169950738916,247.308L720.7081280788178,252.49066666666667L722.7992610837439,249.102L724.89039408867,253.68666666666667L726.9815270935961,253.587L729.0726600985222,248.00566666666666L731.1637931034484,249.89933333333335L733.2549261083744,251.793L735.3460591133005,250.19833333333332L737.4371921182267,239.534L739.5283251231527,239.93266666666665L741.6194581280789,233.554L743.710591133005,233.853L745.801724137931,242.524L747.8928571428572,245.61366666666666L749.9839901477833,246.80966666666666L752.0751231527095,247.70666666666665L754.1662561576355,244.916L756.2573891625616,253.18833333333333L758.3485221674878,250.69666666666666L760.4396551724138,253.18833333333333L762.53078817734,248.70333333333332L764.6219211822661,249.89933333333335L766.7130541871921,258.072L768.8041871921183,263.35433333333333L770.8953201970444,263.95233333333334L772.9864532019704,263.35433333333333L775.0775862068966,267.24133333333333L777.1687192118227,269.0353333333333L779.2598522167489,274.71633333333335L781.3509852216749,279.002L783.442118226601,278.60333333333335L785.5332512315272,279.1016666666667L787.6243842364532,276.70966666666664L789.7155172413794,277.30766666666665L791.8066502463055,278.3043333333333L793.8977832512315,278.00533333333334L795.9889162561577,277.90566666666666L798.0800492610838,282.78933333333333L800.17118226601,280.497L802.262315270936,285.77933333333334L804.3534482758621,280.09833333333336L806.4445812807883,280.29766666666666L808.5357142857143,282.78933333333333L810.6268472906404,289.36733333333336L812.7179802955666,285.58L814.8091133004926,284.78266666666667L816.9002463054188,286.0783333333333L818.9913793103449,286.776L821.082512315271,285.58L823.1736453201971,286.9753333333333L825.2647783251232,287.87233333333336L827.3559113300494,290.26433333333335L829.4470443349754,291.261L831.5381773399015,291.4603333333333L833.6293103448277,291.16133333333335L835.7204433497537,288.17133333333334L837.8115763546799,291.36066666666665L839.902709359606,292.25766666666664L841.993842364532,290.8623333333333L844.0849753694582,293.8523333333333L846.1761083743843,294.0516666666667L848.2672413793105,293.952L850.3583743842365,291.4603333333333L852.4495073891626,295.746L854.5406403940888,294.849L856.6317733990148,292.25766666666664L858.7229064039409,294.45033333333333L860.8140394088671,292.05833333333334L862.9051724137931,295.84566666666666L864.9963054187193,294.35066666666665L867.0874384236454,292.3573333333333L869.1785714285714,294.45033333333333L871.2697044334976,296.74266666666665L873.3608374384237,296.64300000000003L875.4519704433499,296.74266666666665L877.5431034482759,296.4436666666667L879.634236453202,296.54333333333335L881.7253694581282,296.344L883.8165024630542,299.035L885.9076354679804,297.34066666666666L887.9987684729065,297.63966666666664L890.0899014778325,297.9386666666667L892.1810344827587,298.5366666666667L894.2721674876848,298.736L896.363300492611,299.53333333333336L898.454433497537,309.5" stroke="#dc3912" stroke-width="1" fill-opacity="1" fill="none"></path><path d="M51.54556650246305,297.1413333333333L53.63669950738916,293.2543333333333L55.727832512315274,293.45366666666666L57.81896551724138,294.6496666666667L59.91009852216749,292.457L62.001231527093594,295.3473333333333L64.0923645320197,295.04833333333335L66.18349753694582,298.03833333333336L68.27463054187191,295.24766666666665L70.36576354679804,295.64633333333336L72.45689655172414,295.447L74.54802955665025,298.23766666666666L76.63916256157636,296.1446666666667L78.73029556650246,295.84566666666666L80.82142857142857,296.942L82.91256157635468,296.64300000000003L85.0036945812808,295.94533333333334L87.09482758620689,299.633L89.18596059113301,295.746L91.27709359605912,297.1413333333333L93.36822660098522,298.93533333333335L95.45935960591133,296.84233333333333L97.55049261083744,297.34066666666666L99.64162561576356,298.33733333333333L101.73275862068965,297.54L103.82389162561577,296.54333333333335L105.91502463054188,297.1413333333333L108.00615763546799,298.23766666666666L110.09729064039409,299.035L112.1884236453202,299.53333333333336L114.27955665024632,298.138L116.37068965517241,297.7393333333333L118.46182266009853,297.44033333333334L120.55295566502464,296.942L122.64408866995075,297.63966666666664L124.73522167487685,297.9386666666667L126.82635467980296,297.9386666666667L128.91748768472905,297.34066666666666L131.00862068965517,298.83566666666667L133.0997536945813,296.942L135.19088669950742,294.6496666666667L137.2820197044335,294.35066666666665L139.3731527093596,294.251L141.46428571428572,296.54333333333335L143.55541871921184,297.63966666666664L145.64655172413794,297.63966666666664L147.73768472906403,297.34066666666666L149.82881773399015,297.241L151.91995073891627,298.6363333333333L154.0110837438424,296.64300000000003L156.10221674876848,296.2443333333333L158.19334975369458,296.4436666666667L160.2844827586207,297.839L162.37561576354682,297.1413333333333L164.4667487684729,293.8523333333333L166.557881773399,294.251L168.64901477832512,295.447L170.74014778325125,294.15133333333335L172.83128078817737,294.251L174.92241379310346,296.54333333333335L177.01354679802955,295.148L179.10467980295567,295.64633333333336L181.1958128078818,287.47366666666665L183.2869458128079,278.90233333333333L185.378078817734,281.394L187.4692118226601,283.786L189.56034482758622,287.87233333333336L191.6514778325123,290.663L193.74261083743843,288.271L195.83374384236456,288.17133333333334L197.92487684729065,290.962L200.01600985221677,291.4603333333333L202.10714285714286,289.86566666666664L204.19827586206898,291.75933333333336L206.28940886699507,296.1446666666667L208.3805418719212,293.055L210.47167487684732,294.55L212.5628078817734,293.1546666666667L214.65394088669953,294.55L216.74507389162562,293.8523333333333L218.83620689655174,289.66633333333334L220.92733990147784,288.66966666666667L223.01847290640396,282.09166666666664L225.10960591133005,285.4803333333333L227.20073891625617,288.869L229.2918719211823,289.467L231.38300492610838,291.859L233.4741379310345,292.158L235.5652709359606,293.354L237.65640394088672,291.859L239.7475369458128,292.25766666666664L241.83866995073893,293.1546666666667L243.92980295566505,293.45366666666666L246.02093596059115,294.94866666666667L248.11206896551727,293.354L250.20320197044336,295.5466666666667L252.29433497536948,293.8523333333333L254.38546798029557,294.55L256.4766009852217,297.241L258.56773399014776,296.74266666666665L260.65886699507394,296.4436666666667L262.75,295.04833333333335L264.8411330049261,296.1446666666667L266.93226600985224,296.4436666666667L269.0233990147783,295.94533333333334L271.1145320197045,294.35066666666665L273.20566502463055,295.04833333333335L275.29679802955667,295.24766666666665L277.3879310344828,296.045L279.47906403940885,294.6496666666667L281.57019704433503,295.04833333333335L283.6613300492611,294.6496666666667L285.7524630541872,294.94866666666667L287.84359605911334,296.84233333333333L289.9347290640394,295.24766666666665L292.0258620689655,294.94866666666667L294.11699507389164,294.849L296.20812807881777,292.85566666666665L298.2992610837439,294.251L300.39039408866995,294.251L302.48152709359607,292.95533333333333L304.5726600985222,295.24766666666665L306.6637931034483,293.45366666666666L308.7549261083744,295.5466666666667L310.8460591133005,295.64633333333336L312.9371921182266,295.64633333333336L315.02832512315274,293.354L317.11945812807886,291.56L319.2105911330049,292.5566666666667L321.30172413793105,289.766L323.39285714285717,292.3573333333333L325.4839901477833,291.56L327.5751231527094,291.56L329.6662561576355,294.35066666666665L331.7573891625616,294.15133333333335L333.8485221674877,294.94866666666667L335.93965517241384,295.3473333333333L338.0307881773399,294.35066666666665L340.121921182266,294.6496666666667L342.21305418719214,295.64633333333336L344.30418719211826,294.7493333333333L346.3953201970444,295.64633333333336L348.48645320197045,296.64300000000003L350.57758620689657,296.4436666666667L352.6687192118227,295.04833333333335L354.7598522167488,293.952L356.8509852216749,291.75933333333336L358.942118226601,293.354L361.0332512315271,294.0516666666667L363.12438423645324,291.859L365.21551724137936,294.15133333333335L367.3066502463054,292.05833333333334L369.39778325123154,294.849L371.48891625615767,294.849L373.5800492610838,292.158L375.67118226600985,293.952L377.76231527093597,293.55333333333334L379.8534482758621,293.1546666666667L381.9445812807882,293.1546666666667L384.03571428571433,291.4603333333333L386.1268472906404,291.6596666666667L388.2179802955665,291.95866666666666L390.30911330049264,293.1546666666667L392.40024630541876,290.663L394.4913793103449,290.8623333333333L396.58251231527095,294.15133333333335L398.67364532019707,294.94866666666667L400.7647783251232,291.6596666666667L402.8559113300493,291.06166666666667L404.9470443349754,293.653L407.0381773399015,293.45366666666666L409.1293103448276,294.94866666666667L411.22044334975374,294.94866666666667L413.31157635467986,292.85566666666665L415.4027093596059,293.55333333333334L417.49384236453204,294.6496666666667L419.58497536945816,294.251L421.6761083743843,294.15133333333335L423.76724137931035,293.354L425.85837438423647,295.746L427.9495073891626,296.74266666666665L430.0406403940887,293.75266666666664L432.13177339901483,292.85566666666665L434.2229064039409,292.756L436.314039408867,291.36066666666665L438.40517241379314,288.869L440.49630541871926,290.26433333333335L442.5874384236453,291.859L444.67857142857144,292.158L446.76970443349757,292.3573333333333L448.8608374384237,293.45366666666666L450.9519704433498,290.962L453.0431034482759,291.859L455.134236453202,289.2676666666667L457.2253694581281,292.05833333333334L459.31650246305423,292.5566666666667L461.40763546798036,293.055L463.4987684729064,293.653L465.58990147783254,291.16133333333335L467.68103448275866,288.66966666666667L469.7721674876848,289.2676666666667L471.86330049261085,292.457L473.95443349753697,288.57L476.0455665024631,291.06166666666667L478.1366995073892,290.962L480.22783251231533,290.962L482.3189655172414,291.261L484.4100985221675,293.2543333333333L486.50123152709364,292.25766666666664L488.59236453201976,293.952L490.6834975369458,294.251L492.77463054187194,293.2543333333333L494.86576354679806,291.261L496.9568965517242,290.46366666666665L499.0480295566503,290.962L501.13916256157637,289.2676666666667L503.2302955665025,291.75933333333336L505.3214285714286,294.6496666666667L507.41256157635473,291.95866666666666L509.5036945812808,292.158L511.5948275862069,291.36066666666665L513.685960591133,293.45366666666666L515.7770935960591,290.962L517.8682266009853,292.25766666666664L519.9593596059113,293.55333333333334L522.0504926108374,290.1646666666667L524.1416256157636,291.36066666666665L526.2327586206898,293.45366666666666L528.3238916256158,291.36066666666665L530.4150246305419,293.354L532.5061576354681,290.065L534.5972906403941,287.673L536.6884236453202,288.76933333333335L538.7795566502464,290.065L540.8706896551724,290.663L542.9618226600985,287.87233333333336L545.0529556650247,289.2676666666667L547.1440886699509,284.78266666666667L549.2352216748768,287.673L551.326354679803,287.7726666666667L553.4174876847292,283.487L555.5086206896552,280.09833333333336L557.5997536945813,281.394L559.6908866995075,283.58666666666664L561.7820197044335,284.5833333333333L563.8731527093596,284.18466666666666L565.9642857142858,284.4836666666667L568.0554187192118,281.59333333333336L570.146551724138,280.198L572.2376847290641,280.09833333333336L574.3288177339901,282.889L576.4199507389163,281.89233333333334L578.5110837438424,281.59333333333336L580.6022167487686,281.095L582.6933497536946,280.198L584.7844827586207,279.7993333333333L586.8756157635469,283.28766666666667L588.9667487684729,283.0883333333333L591.057881773399,283.487L593.1490147783252,282.49033333333335L595.2401477832512,283.487L597.3312807881774,286.0783333333333L599.4224137931035,282.889L601.5135467980296,280.99533333333335L603.6046798029557,284.085L605.6958128078818,279.9986666666667L607.786945812808,281.693L609.878078817734,281.59333333333336L611.9692118226601,280.39733333333334L614.0603448275863,281.394L616.1514778325123,281.79266666666666L618.2426108374385,280.39733333333334L620.3337438423646,278.3043333333333L622.4248768472906,276.1116666666667L624.5160098522168,252.391L626.6071428571429,238.23833333333334L628.6982758620691,241.12866666666667L630.7894088669951,249.50066666666666L632.8805418719212,248.504L634.9716748768474,251.29466666666667L637.0628078817734,256.278L639.1539408866995,258.1716666666667L641.2450738916257,260.165L643.3362068965517,258.47066666666666L645.4273399014779,258.57033333333334L647.518472906404,260.763L649.60960591133,263.6533333333333L651.7007389162562,266.145L653.7918719211823,268.43733333333336L655.8830049261085,270.23133333333334L657.9741379310345,268.43733333333336L660.0652709359606,267.14166666666665L662.1564039408868,271.527L664.2475369458128,272.2246666666667L666.338669950739,277.00866666666667L668.4298029556651,274.71633333333335L670.5209359605911,272.9223333333333L672.6120689655173,271.12833333333333L674.7032019704434,276.1116666666667L676.7943349753695,280.796L678.8854679802956,275.115L680.9766009852217,277.7063333333333L683.0677339901479,277.10833333333335L685.1588669950739,277.10833333333335L687.25,279.9986666666667L689.3411330049262,279.50033333333334L691.4322660098522,281.19466666666665L693.5233990147784,279.50033333333334L695.6145320197045,280.99533333333335L697.7056650246305,281.89233333333334L699.7967980295567,283.188L701.8879310344828,284.5833333333333L703.979064039409,285.58L706.070197044335,283.6863333333333L708.1613300492611,283.0883333333333L710.2524630541873,287.17466666666667L712.3435960591133,286.477L714.4347290640395,283.8856666666667L716.5258620689656,284.28433333333334L718.6169950738916,287.075L720.7081280788178,286.477L722.7992610837439,287.87233333333336L724.89039408867,289.467L726.9815270935961,288.3706666666667L729.0726600985222,286.57666666666665L731.1637931034484,287.27433333333335L733.2549261083744,287.87233333333336L735.3460591133005,288.07166666666666L737.4371921182267,285.281L739.5283251231527,286.67633333333333L741.6194581280789,284.085L743.710591133005,285.281L745.801724137931,287.27433333333335L747.8928571428572,287.972L749.9839901477833,287.7726666666667L752.0751231527095,288.76933333333335L754.1662561576355,286.2776666666667L756.2573891625616,289.36733333333336L758.3485221674878,289.467L760.4396551724138,289.56666666666666L762.53078817734,288.4703333333333L764.6219211822661,288.4703333333333L766.7130541871921,291.16133333333335L768.8041871921183,292.05833333333334L770.8953201970444,291.95866666666666L772.9864532019704,292.85566666666665L775.0775862068966,293.952L777.1687192118227,292.457L779.2598522167489,295.04833333333335L781.3509852216749,297.0416666666667L783.442118226601,296.344L785.5332512315272,297.44033333333334L787.6243842364532,296.942L789.7155172413794,296.74266666666665L791.8066502463055,295.24766666666665L793.8977832512315,296.4436666666667L795.9889162561577,295.447L798.0800492610838,298.83566666666667L800.17118226601,297.0416666666667L802.262315270936,298.23766666666666L804.3534482758621,296.84233333333333L806.4445812807883,297.241L808.5357142857143,296.54333333333335L810.6268472906404,300.231L812.7179802955666,298.23766666666666L814.8091133004926,297.7393333333333L816.9002463054188,298.33733333333333L818.9913793103449,299.035L821.082512315271,297.63966666666664L823.1736453201971,299.4336666666667L825.2647783251232,300.3306666666667L827.3559113300494,300.3306666666667L829.4470443349754,300.03166666666664L831.5381773399015,301.128L833.6293103448277,301.92533333333336L835.7204433497537,300.43033333333335L837.8115763546799,300.43033333333335L839.902709359606,301.8256666666667L841.993842364532,300.829L844.0849753694582,302.623L846.1761083743843,302.4236666666667L848.2672413793105,302.324L850.3583743842365,301.52666666666664L852.4495073891626,301.6263333333333L854.5406403940888,303.52L856.6317733990148,301.726L858.7229064039409,303.1213333333333L860.8140394088671,302.324L862.9051724137931,302.5233333333333L864.9963054187193,302.922L867.0874384236454,301.6263333333333L869.1785714285714,301.22766666666666L871.2697044334976,302.5233333333333L873.3608374384237,302.4236666666667L875.4519704433499,303.42033333333336L877.5431034482759,302.922L879.634236453202,303.02166666666665L881.7253694581282,303.3206666666667L883.8165024630542,304.2176666666667L885.9076354679804,303.819L887.9987684729065,303.1213333333333L890.0899014778325,302.5233333333333L892.1810344827587,304.118L894.2721674876848,303.71933333333334L896.363300492611,304.2176666666667L898.454433497537,309.5" stroke="#ff9900" stroke-width="1" fill-opacity="1" fill="none"></path><path d="M51.54556650246305,309.5L53.63669950738916,309.4003333333333L55.727832512315274,309.5L57.81896551724138,309.5L59.91009852216749,309.5L62.001231527093594,309.10133333333334L64.0923645320197,309.4003333333333L66.18349753694582,309.4003333333333L68.27463054187191,309.4003333333333L70.36576354679804,309.5L72.45689655172414,309.5L74.54802955665025,309.5L76.63916256157636,309.5L78.73029556650246,309.4003333333333L80.82142857142857,309.4003333333333L82.91256157635468,309.5L85.0036945812808,309.5L87.09482758620689,309.5L89.18596059113301,309.5L91.27709359605912,309.30066666666664L93.36822660098522,309.5L95.45935960591133,309.4003333333333L97.55049261083744,309.4003333333333L99.64162561576356,309.4003333333333L101.73275862068965,309.4003333333333L103.82389162561577,309.201L105.91502463054188,309.4003333333333L108.00615763546799,309.5L110.09729064039409,309.4003333333333L112.1884236453202,309.5L114.27955665024632,309.5L116.37068965517241,309.4003333333333L118.46182266009853,309.5L120.55295566502464,309.5L122.64408866995075,309.4003333333333L124.73522167487685,309.5L126.82635467980296,309.30066666666664L128.91748768472905,309.4003333333333L131.00862068965517,309.4003333333333L133.0997536945813,309.5L135.19088669950742,309.30066666666664L137.2820197044335,309.4003333333333L139.3731527093596,309.5L141.46428571428572,309.5L143.55541871921184,309.5L145.64655172413794,309.10133333333334L147.73768472906403,309.5L149.82881773399015,309.5L151.91995073891627,309.4003333333333L154.0110837438424,309.4003333333333L156.10221674876848,309.5L158.19334975369458,309.5L160.2844827586207,309.30066666666664L162.37561576354682,309.5L164.4667487684729,309.5L166.557881773399,309.4003333333333L168.64901477832512,309.4003333333333L170.74014778325125,309.5L172.83128078817737,309.5L174.92241379310346,309.4003333333333L177.01354679802955,309.5L179.10467980295567,309.5L181.1958128078818,309.30066666666664L183.2869458128079,309.4003333333333L185.378078817734,309.30066666666664L187.4692118226601,308.902L189.56034482758622,309.4003333333333L191.6514778325123,309.4003333333333L193.74261083743843,309.5L195.83374384236456,309.4003333333333L197.92487684729065,309.5L200.01600985221677,309.4003333333333L202.10714285714286,309.5L204.19827586206898,309.5L206.28940886699507,309.5L208.3805418719212,309.30066666666664L210.47167487684732,309.30066666666664L212.5628078817734,309.4003333333333L214.65394088669953,309.30066666666664L216.74507389162562,309.30066666666664L218.83620689655174,309.30066666666664L220.92733990147784,309.201L223.01847290640396,309.5L225.10960591133005,309.5L227.20073891625617,309.4003333333333L229.2918719211823,308.8023333333333L231.38300492610838,309.4003333333333L233.4741379310345,309.5L235.5652709359606,309.201L237.65640394088672,309.4003333333333L239.7475369458128,309.30066666666664L241.83866995073893,309.4003333333333L243.92980295566505,309.5L246.02093596059115,309.4003333333333L248.11206896551727,309.5L250.20320197044336,309.5L252.29433497536948,309.4003333333333L254.38546798029557,309.4003333333333L256.4766009852217,309.5L258.56773399014776,309.4003333333333L260.65886699507394,309.5L262.75,309.4003333333333L264.8411330049261,309.4003333333333L266.93226600985224,309.5L269.0233990147783,309.5L271.1145320197045,308.902L273.20566502463055,309.4003333333333L275.29679802955667,309.4003333333333L277.3879310344828,309.4003333333333L279.47906403940885,309.4003333333333L281.57019704433503,309.30066666666664L283.6613300492611,309.5L285.7524630541872,309.4003333333333L287.84359605911334,309.5L289.9347290640394,309.5L292.0258620689655,309.5L294.11699507389164,309.4003333333333L296.20812807881777,309.5L298.2992610837439,309.5L300.39039408866995,309.4003333333333L302.48152709359607,309.4003333333333L304.5726600985222,309.5L306.6637931034483,309.5L308.7549261083744,309.5L310.8460591133005,309.4003333333333L312.9371921182266,309.00166666666667L315.02832512315274,309.5L317.11945812807886,309.5L319.2105911330049,309.4003333333333L321.30172413793105,309.4003333333333L323.39285714285717,309.4003333333333L325.4839901477833,309.4003333333333L327.5751231527094,309.4003333333333L329.6662561576355,309.5L331.7573891625616,309.5L333.8485221674877,309.4003333333333L335.93965517241384,309.201L338.0307881773399,309.5L340.121921182266,309.5L342.21305418719214,309.5L344.30418719211826,309.30066666666664L346.3953201970444,309.30066666666664L348.48645320197045,309.4003333333333L350.57758620689657,309.4003333333333L352.6687192118227,309.30066666666664L354.7598522167488,308.902L356.8509852216749,309.5L358.942118226601,309.5L361.0332512315271,309.5L363.12438423645324,309.4003333333333L365.21551724137936,309.5L367.3066502463054,309.30066666666664L369.39778325123154,309.5L371.48891625615767,309.5L373.5800492610838,309.5L375.67118226600985,309.5L377.76231527093597,309.5L379.8534482758621,309.4003333333333L381.9445812807882,309.30066666666664L384.03571428571433,309.5L386.1268472906404,309.4003333333333L388.2179802955665,309.4003333333333L390.30911330049264,309.4003333333333L392.40024630541876,309.4003333333333L394.4913793103449,309.5L396.58251231527095,308.902L398.67364532019707,309.4003333333333L400.7647783251232,309.30066666666664L402.8559113300493,309.30066666666664L404.9470443349754,309.30066666666664L407.0381773399015,309.4003333333333L409.1293103448276,309.5L411.22044334975374,309.4003333333333L413.31157635467986,309.5L415.4027093596059,309.5L417.49384236453204,309.30066666666664L419.58497536945816,309.5L421.6761083743843,309.5L423.76724137931035,309.5L425.85837438423647,309.5L427.9495073891626,309.4003333333333L430.0406403940887,309.5L432.13177339901483,309.30066666666664L434.2229064039409,309.4003333333333L436.314039408867,309.5L438.40517241379314,308.8023333333333L440.49630541871926,309.10133333333334L442.5874384236453,309.4003333333333L444.67857142857144,309.5L446.76970443349757,309.4003333333333L448.8608374384237,309.4003333333333L450.9519704433498,309.4003333333333L453.0431034482759,309.5L455.134236453202,309.201L457.2253694581281,309.4003333333333L459.31650246305423,309.4003333333333L461.40763546798036,309.4003333333333L463.4987684729064,309.4003333333333L465.58990147783254,309.30066666666664L467.68103448275866,309.201L469.7721674876848,309.5L471.86330049261085,309.5L473.95443349753697,309.4003333333333L476.0455665024631,309.5L478.1366995073892,309.5L480.22783251231533,308.7026666666667L482.3189655172414,309.30066666666664L484.4100985221675,309.30066666666664L486.50123152709364,309.30066666666664L488.59236453201976,309.5L490.6834975369458,309.4003333333333L492.77463054187194,309.4003333333333L494.86576354679806,309.5L496.9568965517242,309.5L499.0480295566503,309.4003333333333L501.13916256157637,309.4003333333333L503.2302955665025,309.30066666666664L505.3214285714286,309.4003333333333L507.41256157635473,309.30066666666664L509.5036945812808,309.5L511.5948275862069,309.5L513.685960591133,309.4003333333333L515.7770935960591,309.4003333333333L517.8682266009853,309.4003333333333L519.9593596059113,309.5L522.0504926108374,308.8023333333333L524.1416256157636,309.5L526.2327586206898,309.4003333333333L528.3238916256158,309.5L530.4150246305419,309.4003333333333L532.5061576354681,309.5L534.5972906403941,309.4003333333333L536.6884236453202,309.5L538.7795566502464,309.5L540.8706896551724,309.5L542.9618226600985,309.5L545.0529556650247,309.5L547.1440886699509,309.5L549.2352216748768,309.5L551.326354679803,309.5L553.4174876847292,309.201L555.5086206896552,309.4003333333333L557.5997536945813,309.5L559.6908866995075,309.5L561.7820197044335,309.201L563.8731527093596,308.8023333333333L565.9642857142858,309.4003333333333L568.0554187192118,309.4003333333333L570.146551724138,309.30066666666664L572.2376847290641,309.30066666666664L574.3288177339901,309.4003333333333L576.4199507389163,309.30066666666664L578.5110837438424,309.30066666666664L580.6022167487686,309.4003333333333L582.6933497536946,309.30066666666664L584.7844827586207,309.4003333333333L586.8756157635469,309.201L588.9667487684729,309.30066666666664L591.057881773399,309.4003333333333L593.1490147783252,309.30066666666664L595.2401477832512,309.4003333333333L597.3312807881774,309.5L599.4224137931035,309.30066666666664L601.5135467980296,309.201L603.6046798029557,309.5L605.6958128078818,308.603L607.786945812808,309.30066666666664L609.878078817734,309.5L611.9692118226601,309.4003333333333L614.0603448275863,309.30066666666664L616.1514778325123,309.00166666666667L618.2426108374385,309.201L620.3337438423646,309.4003333333333L622.4248768472906,309.10133333333334L624.5160098522168,308.603L626.6071428571429,309.4003333333333L628.6982758620691,309.10133333333334L630.7894088669951,309.00166666666667L632.8805418719212,309.30066666666664L634.9716748768474,309.30066666666664L637.0628078817734,308.902L639.1539408866995,308.8023333333333L641.2450738916257,309.201L643.3362068965517,309.00166666666667L645.4273399014779,308.7026666666667L647.518472906404,308.40366666666665L649.60960591133,309.5L651.7007389162562,309.30066666666664L653.7918719211823,309.30066666666664L655.8830049261085,309.30066666666664L657.9741379310345,309.201L660.0652709359606,309.5L662.1564039408868,309.201L664.2475369458128,309.30066666666664L666.338669950739,309.30066666666664L668.4298029556651,309.201L670.5209359605911,309.201L672.6120689655173,309.10133333333334L674.7032019704434,309.4003333333333L676.7943349753695,309.5L678.8854679802956,309.5L680.9766009852217,309.4003333333333L683.0677339901479,309.4003333333333L685.1588669950739,309.30066666666664L687.25,309.30066666666664L689.3411330049262,308.603L691.4322660098522,309.4003333333333L693.5233990147784,309.30066666666664L695.6145320197045,309.4003333333333L697.7056650246305,309.5L699.7967980295567,309.30066666666664L701.8879310344828,309.201L703.979064039409,309.4003333333333L706.070197044335,309.201L708.1613300492611,309.4003333333333L710.2524630541873,309.30066666666664L712.3435960591133,309.30066666666664L714.4347290640395,309.4003333333333L716.5258620689656,309.5L718.6169950738916,309.5L720.7081280788178,309.30066666666664L722.7992610837439,309.5L724.89039408867,309.5L726.9815270935961,309.30066666666664L729.0726600985222,309.30066666666664L731.1637931034484,308.40366666666665L733.2549261083744,309.5L735.3460591133005,309.30066666666664L737.4371921182267,309.5L739.5283251231527,309.4003333333333L741.6194581280789,309.5L743.710591133005,309.201L745.801724137931,309.4003333333333L747.8928571428572,309.10133333333334L749.9839901477833,309.4003333333333L752.0751231527095,309.4003333333333L754.1662561576355,309.5L756.2573891625616,309.30066666666664L758.3485221674878,309.30066666666664L760.4396551724138,309.4003333333333L762.53078817734,309.4003333333333L764.6219211822661,309.10133333333334L766.7130541871921,309.30066666666664L768.8041871921183,309.5L770.8953201970444,309.5L772.9864532019704,308.40366666666665L775.0775862068966,309.5L777.1687192118227,309.4003333333333L779.2598522167489,309.30066666666664L781.3509852216749,309.4003333333333L783.442118226601,309.5L785.5332512315272,309.4003333333333L787.6243842364532,309.4003333333333L789.7155172413794,309.4003333333333L791.8066502463055,309.5L793.8977832512315,309.5L795.9889162561577,309.5L798.0800492610838,309.5L800.17118226601,309.4003333333333L802.262315270936,309.5L804.3534482758621,309.5L806.4445812807883,309.5L808.5357142857143,309.5L810.6268472906404,309.5L812.7179802955666,309.5L814.8091133004926,308.50333333333333L816.9002463054188,309.4003333333333L818.9913793103449,309.5L821.082512315271,309.5L823.1736453201971,309.4003333333333L825.2647783251232,309.5L827.3559113300494,309.5L829.4470443349754,309.5L831.5381773399015,309.5L833.6293103448277,309.5L835.7204433497537,309.5L837.8115763546799,309.5L839.902709359606,309.5L841.993842364532,309.5L844.0849753694582,309.5L846.1761083743843,309.5L848.2672413793105,309.5L850.3583743842365,309.5L852.4495073891626,309.5L854.5406403940888,309.5L856.6317733990148,308.50333333333333L858.7229064039409,309.5L860.8140394088671,309.4003333333333L862.9051724137931,309.5L864.9963054187193,309.5L867.0874384236454,309.5L869.1785714285714,309.5L871.2697044334976,309.5L873.3608374384237,309.5L875.4519704433499,309.4003333333333L877.5431034482759,309.5L879.634236453202,309.5L881.7253694581282,309.4003333333333L883.8165024630542,309.5L885.9076354679804,309.5L887.9987684729065,309.5L890.0899014778325,309.5L892.1810344827587,309.5L894.2721674876848,309.5L896.363300492611,309.5L898.454433497537,309.5" stroke="#109618" stroke-width="1" fill-opacity="1" fill="none"></path></g></g><g></g><g><g><text text-anchor="end" x="54.69556650246305" y="319" font-family="Arial" font-size="9" transform="rotate(-90 54.69556650246305 319)" stroke="none" stroke-width="0" fill="#222222">2015-09-14 17:15</text></g><g><text text-anchor="end" x="67.2423645320197" y="319" font-family="Arial" font-size="9" transform="rotate(-90 67.2423645320197 319)" stroke="none" stroke-width="0" fill="#222222">2015-09-14 17:21</text></g><g><text text-anchor="end" x="79.78916256157636" y="319" font-family="Arial" font-size="9" transform="rotate(-90 79.78916256157636 319)" stroke="none" stroke-width="0" fill="#222222">2015-09-14 17:27</text></g><g><text text-anchor="end" x="92.33596059113302" y="319" font-family="Arial" font-size="9" transform="rotate(-90 92.33596059113302 319)" stroke="none" stroke-width="0" fill="#222222">2015-09-14 17:33</text></g><g><text text-anchor="end" x="104.88275862068966" y="319" font-family="Arial" font-size="9" transform="rotate(-90 104.88275862068966 319)" stroke="none" stroke-width="0" fill="#222222">2015-09-14 17:39</text></g><g><text text-anchor="end" x="117.42955665024633" y="319" font-family="Arial" font-size="9" transform="rotate(-90 117.42955665024633 319)" stroke="none" stroke-width="0" fill="#222222">2015-09-14 17:45</text></g><g><text text-anchor="end" x="129.97635467980297" y="319" font-family="Arial" font-size="9" transform="rotate(-90 129.97635467980297 319)" stroke="none" stroke-width="0" fill="#222222">2015-09-14 17:51</text></g><g><text text-anchor="end" x="142.5231527093596" y="319" font-family="Arial" font-size="9" transform="rotate(-90 142.5231527093596 319)" stroke="none" stroke-width="0" fill="#222222">2015-09-14 17:57</text></g><g><text text-anchor="end" x="155.06995073891628" y="319" font-family="Arial" font-size="9" transform="rotate(-90 155.06995073891628 319)" stroke="none" stroke-width="0" fill="#222222">2015-09-14 18:03</text></g><g><text text-anchor="end" x="167.61674876847292" y="319" font-family="Arial" font-size="9" transform="rotate(-90 167.61674876847292 319)" stroke="none" stroke-width="0" fill="#222222">2015-09-14 18:09</text></g><g><text text-anchor="end" x="180.16354679802956" y="319" font-family="Arial" font-size="9" transform="rotate(-90 180.16354679802956 319)" stroke="none" stroke-width="0" fill="#222222">2015-09-14 18:15</text></g><g><text text-anchor="end" x="192.71034482758623" y="319" font-family="Arial" font-size="9" transform="rotate(-90 192.71034482758623 319)" stroke="none" stroke-width="0" fill="#222222">2015-09-14 18:21</text></g><g><text text-anchor="end" x="205.25714285714287" y="319" font-family="Arial" font-size="9" transform="rotate(-90 205.25714285714287 319)" stroke="none" stroke-width="0" fill="#222222">2015-09-14 18:27</text></g><g><text text-anchor="end" x="217.80394088669954" y="319" font-family="Arial" font-size="9" transform="rotate(-90 217.80394088669954 319)" stroke="none" stroke-width="0" fill="#222222">2015-09-14 18:33</text></g><g><text text-anchor="end" x="230.35073891625618" y="319" font-family="Arial" font-size="9" transform="rotate(-90 230.35073891625618 319)" stroke="none" stroke-width="0" fill="#222222">2015-09-14 18:39</text></g><g><text text-anchor="end" x="242.89753694581282" y="319" font-family="Arial" font-size="9" transform="rotate(-90 242.89753694581282 319)" stroke="none" stroke-width="0" fill="#222222">2015-09-14 18:45</text></g><g><text text-anchor="end" x="255.4443349753695" y="319" font-family="Arial" font-size="9" transform="rotate(-90 255.4443349753695 319)" stroke="none" stroke-width="0" fill="#222222">2015-09-14 18:51</text></g><g><text text-anchor="end" x="267.9911330049261" y="319" font-family="Arial" font-size="9" transform="rotate(-90 267.9911330049261 319)" stroke="none" stroke-width="0" fill="#222222">2015-09-14 18:57</text></g><g><text text-anchor="end" x="280.53793103448277" y="319" font-family="Arial" font-size="9" transform="rotate(-90 280.53793103448277 319)" stroke="none" stroke-width="0" fill="#222222">2015-09-14 19:03</text></g><g><text text-anchor="end" x="293.0847290640394" y="319" font-family="Arial" font-size="9" transform="rotate(-90 293.0847290640394 319)" stroke="none" stroke-width="0" fill="#222222">2015-09-14 19:09</text></g><g><text text-anchor="end" x="305.63152709359605" y="319" font-family="Arial" font-size="9" transform="rotate(-90 305.63152709359605 319)" stroke="none" stroke-width="0" fill="#222222">2015-09-14 19:15</text></g><g><text text-anchor="end" x="318.1783251231527" y="319" font-family="Arial" font-size="9" transform="rotate(-90 318.1783251231527 319)" stroke="none" stroke-width="0" fill="#222222">2015-09-14 19:21</text></g><g><text text-anchor="end" x="330.7251231527094" y="319" font-family="Arial" font-size="9" transform="rotate(-90 330.7251231527094 319)" stroke="none" stroke-width="0" fill="#222222">2015-09-14 19:27</text></g><g><text text-anchor="end" x="343.271921182266" y="319" font-family="Arial" font-size="9" transform="rotate(-90 343.271921182266 319)" stroke="none" stroke-width="0" fill="#222222">2015-09-14 19:33</text></g><g><text text-anchor="end" x="355.81871921182267" y="319" font-family="Arial" font-size="9" transform="rotate(-90 355.81871921182267 319)" stroke="none" stroke-width="0" fill="#222222">2015-09-14 19:39</text></g><g><text text-anchor="end" x="368.36551724137934" y="319" font-family="Arial" font-size="9" transform="rotate(-90 368.36551724137934 319)" stroke="none" stroke-width="0" fill="#222222">2015-09-14 19:45</text></g><g><text text-anchor="end" x="380.91231527093595" y="319" font-family="Arial" font-size="9" transform="rotate(-90 380.91231527093595 319)" stroke="none" stroke-width="0" fill="#222222">2015-09-14 19:51</text></g><g><text text-anchor="end" x="393.4591133004926" y="319" font-family="Arial" font-size="9" transform="rotate(-90 393.4591133004926 319)" stroke="none" stroke-width="0" fill="#222222">2015-09-14 19:57</text></g><g><text text-anchor="end" x="406.0059113300493" y="319" font-family="Arial" font-size="9" transform="rotate(-90 406.0059113300493 319)" stroke="none" stroke-width="0" fill="#222222">2015-09-14 20:03</text></g><g><text text-anchor="end" x="418.5527093596059" y="319" font-family="Arial" font-size="9" transform="rotate(-90 418.5527093596059 319)" stroke="none" stroke-width="0" fill="#222222">2015-09-14 20:09</text></g><g><text text-anchor="end" x="431.09950738916257" y="319" font-family="Arial" font-size="9" transform="rotate(-90 431.09950738916257 319)" stroke="none" stroke-width="0" fill="#222222">2015-09-14 20:15</text></g><g><text text-anchor="end" x="443.64630541871924" y="319" font-family="Arial" font-size="9" transform="rotate(-90 443.64630541871924 319)" stroke="none" stroke-width="0" fill="#222222">2015-09-14 20:21</text></g><g><text text-anchor="end" x="456.19310344827585" y="319" font-family="Arial" font-size="9" transform="rotate(-90 456.19310344827585 319)" stroke="none" stroke-width="0" fill="#222222">2015-09-14 20:27</text></g><g><text text-anchor="end" x="468.7399014778325" y="319" font-family="Arial" font-size="9" transform="rotate(-90 468.7399014778325 319)" stroke="none" stroke-width="0" fill="#222222">2015-09-14 20:33</text></g><g><text text-anchor="end" x="481.2866995073892" y="319" font-family="Arial" font-size="9" transform="rotate(-90 481.2866995073892 319)" stroke="none" stroke-width="0" fill="#222222">2015-09-14 20:39</text></g><g><text text-anchor="end" x="493.8334975369458" y="319" font-family="Arial" font-size="9" transform="rotate(-90 493.8334975369458 319)" stroke="none" stroke-width="0" fill="#222222">2015-09-14 20:45</text></g><g><text text-anchor="end" x="506.38029556650247" y="319" font-family="Arial" font-size="9" transform="rotate(-90 506.38029556650247 319)" stroke="none" stroke-width="0" fill="#222222">2015-09-14 20:51</text></g><g><text text-anchor="end" x="518.9270935960591" y="319" font-family="Arial" font-size="9" transform="rotate(-90 518.9270935960591 319)" stroke="none" stroke-width="0" fill="#222222">2015-09-14 20:57</text></g><g><text text-anchor="end" x="531.4738916256158" y="319" font-family="Arial" font-size="9" transform="rotate(-90 531.4738916256158 319)" stroke="none" stroke-width="0" fill="#222222">2015-09-14 21:03</text></g><g><text text-anchor="end" x="544.0206896551724" y="319" font-family="Arial" font-size="9" transform="rotate(-90 544.0206896551724 319)" stroke="none" stroke-width="0" fill="#222222">2015-09-14 21:09</text></g><g><text text-anchor="end" x="556.5674876847291" y="319" font-family="Arial" font-size="9" transform="rotate(-90 556.5674876847291 319)" stroke="none" stroke-width="0" fill="#222222">2015-09-14 21:15</text></g><g><text text-anchor="end" x="569.1142857142858" y="319" font-family="Arial" font-size="9" transform="rotate(-90 569.1142857142858 319)" stroke="none" stroke-width="0" fill="#222222">2015-09-14 21:21</text></g><g><text text-anchor="end" x="581.6610837438424" y="319" font-family="Arial" font-size="9" transform="rotate(-90 581.6610837438424 319)" stroke="none" stroke-width="0" fill="#222222">2015-09-14 21:27</text></g><g><text text-anchor="end" x="594.207881773399" y="319" font-family="Arial" font-size="9" transform="rotate(-90 594.207881773399 319)" stroke="none" stroke-width="0" fill="#222222">2015-09-14 21:33</text></g><g><text text-anchor="end" x="606.7546798029557" y="319" font-family="Arial" font-size="9" transform="rotate(-90 606.7546798029557 319)" stroke="none" stroke-width="0" fill="#222222">2015-09-14 21:39</text></g><g><text text-anchor="end" x="619.3014778325123" y="319" font-family="Arial" font-size="9" transform="rotate(-90 619.3014778325123 319)" stroke="none" stroke-width="0" fill="#222222">2015-09-14 21:45</text></g><g><text text-anchor="end" x="631.848275862069" y="319" font-family="Arial" font-size="9" transform="rotate(-90 631.848275862069 319)" stroke="none" stroke-width="0" fill="#222222">2015-09-14 21:51</text></g><g><text text-anchor="end" x="644.3950738916257" y="319" font-family="Arial" font-size="9" transform="rotate(-90 644.3950738916257 319)" stroke="none" stroke-width="0" fill="#222222">2015-09-14 21:57</text></g><g><text text-anchor="end" x="656.9418719211823" y="319" font-family="Arial" font-size="9" transform="rotate(-90 656.9418719211823 319)" stroke="none" stroke-width="0" fill="#222222">2015-09-14 22:03</text></g><g><text text-anchor="end" x="669.488669950739" y="319" font-family="Arial" font-size="9" transform="rotate(-90 669.488669950739 319)" stroke="none" stroke-width="0" fill="#222222">2015-09-14 22:09</text></g><g><text text-anchor="end" x="682.0354679802956" y="319" font-family="Arial" font-size="9" transform="rotate(-90 682.0354679802956 319)" stroke="none" stroke-width="0" fill="#222222">2015-09-14 22:15</text></g><g><text text-anchor="end" x="694.5822660098522" y="319" font-family="Arial" font-size="9" transform="rotate(-90 694.5822660098522 319)" stroke="none" stroke-width="0" fill="#222222">2015-09-14 22:21</text></g><g><text text-anchor="end" x="707.129064039409" y="319" font-family="Arial" font-size="9" transform="rotate(-90 707.129064039409 319)" stroke="none" stroke-width="0" fill="#222222">2015-09-14 22:27</text></g><g><text text-anchor="end" x="719.6758620689656" y="319" font-family="Arial" font-size="9" transform="rotate(-90 719.6758620689656 319)" stroke="none" stroke-width="0" fill="#222222">2015-09-14 22:33</text></g><g><text text-anchor="end" x="732.2226600985222" y="319" font-family="Arial" font-size="9" transform="rotate(-90 732.2226600985222 319)" stroke="none" stroke-width="0" fill="#222222">2015-09-14 22:39</text></g><g><text text-anchor="end" x="744.7694581280789" y="319" font-family="Arial" font-size="9" transform="rotate(-90 744.7694581280789 319)" stroke="none" stroke-width="0" fill="#222222">2015-09-14 22:45</text></g><g><text text-anchor="end" x="757.3162561576355" y="319" font-family="Arial" font-size="9" transform="rotate(-90 757.3162561576355 319)" stroke="none" stroke-width="0" fill="#222222">2015-09-14 22:51</text></g><g><text text-anchor="end" x="769.8630541871921" y="319" font-family="Arial" font-size="9" transform="rotate(-90 769.8630541871921 319)" stroke="none" stroke-width="0" fill="#222222">2015-09-14 22:57</text></g><g><text text-anchor="end" x="782.4098522167488" y="319" font-family="Arial" font-size="9" transform="rotate(-90 782.4098522167488 319)" stroke="none" stroke-width="0" fill="#222222">2015-09-14 23:03</text></g><g><text text-anchor="end" x="794.9566502463055" y="319" font-family="Arial" font-size="9" transform="rotate(-90 794.9566502463055 319)" stroke="none" stroke-width="0" fill="#222222">2015-09-14 23:09</text></g><g><text text-anchor="end" x="807.5034482758621" y="319" font-family="Arial" font-size="9" transform="rotate(-90 807.5034482758621 319)" stroke="none" stroke-width="0" fill="#222222">2015-09-14 23:15</text></g><g><text text-anchor="end" x="820.0502463054188" y="319" font-family="Arial" font-size="9" transform="rotate(-90 820.0502463054188 319)" stroke="none" stroke-width="0" fill="#222222">2015-09-14 23:21</text></g><g><text text-anchor="end" x="832.5970443349754" y="319" font-family="Arial" font-size="9" transform="rotate(-90 832.5970443349754 319)" stroke="none" stroke-width="0" fill="#222222">2015-09-14 23:27</text></g><g><text text-anchor="end" x="845.143842364532" y="319" font-family="Arial" font-size="9" transform="rotate(-90 845.143842364532 319)" stroke="none" stroke-width="0" fill="#222222">2015-09-14 23:33</text></g><g><text text-anchor="end" x="857.6906403940887" y="319" font-family="Arial" font-size="9" transform="rotate(-90 857.6906403940887 319)" stroke="none" stroke-width="0" fill="#222222">2015-09-14 23:39</text></g><g><text text-anchor="end" x="870.2374384236454" y="319" font-family="Arial" font-size="9" transform="rotate(-90 870.2374384236454 319)" stroke="none" stroke-width="0" fill="#222222">2015-09-14 23:45</text></g><g><text text-anchor="end" x="882.784236453202" y="319" font-family="Arial" font-size="9" transform="rotate(-90 882.784236453202 319)" stroke="none" stroke-width="0" fill="#222222">2015-09-14 23:51</text></g><g><text text-anchor="end" x="895.3310344827587" y="319" font-family="Arial" font-size="9" transform="rotate(-90 895.3310344827587 319)" stroke="none" stroke-width="0" fill="#222222">2015-09-14 23:57</text></g><g><text text-anchor="end" x="41" y="312.65" font-family="Arial" font-size="9" stroke="none" stroke-width="0" fill="#444444">0</text></g><g><text text-anchor="end" x="41" y="237.9" font-family="Arial" font-size="9" stroke="none" stroke-width="0" fill="#444444">750</text></g><g><text text-anchor="end" x="41" y="163.15" font-family="Arial" font-size="9" stroke="none" stroke-width="0" fill="#444444">1,500</text></g><g><text text-anchor="end" x="41" y="88.4" font-family="Arial" font-size="9" stroke="none" stroke-width="0" fill="#444444">2,250</text></g><g><text text-anchor="end" x="41" y="13.65" font-family="Arial" font-size="9" stroke="none" stroke-width="0" fill="#444444">3,000</text></g></g></g><g></g></svg>